<svg width="731" height="550" viewBox="0 0 731 550" fill="none" xmlns="http://www.w3.org/2000/svg">
    <path d="M464.788 549.171H269.743L276.584 528.481C318.982 514.153 295.167 483.357 335.497 464.533C434.142 418.491 472.332 281.098 457.887 226.785L522.532 224.234C522.532 224.234 611.806 460.896 464.788 549.171Z" fill="#3F3D56"/>
    <path d="M517.967 437.903L574.985 397.494L602.777 423.437L509.89 482.773L517.967 437.903Z" fill="#3F3D56"/>
    <path d="M257.946 30.4161C238.355 27.9441 215.989 37.8287 210.912 55.6635C209.632 52.4925 207.306 49.7833 204.268 47.9273C201.231 46.0713 197.641 45.1647 194.016 45.3384C190.39 45.512 186.918 46.757 184.1 48.8934C181.283 51.0298 179.266 53.9471 178.341 57.2237L180.583 58.7232C222.566 67.1981 266.024 67.0147 307.923 58.1858C294.295 44.8169 277.537 32.8879 257.946 30.4161Z" fill="#F0F0F0"/>
    <path d="M173.93 80.7282C154.339 78.2563 131.973 88.1409 126.895 105.976C125.616 102.805 123.289 100.095 120.252 98.2395C117.215 96.3835 113.624 95.4768 109.999 95.6505C106.374 95.8241 102.902 97.0691 100.084 99.2055C97.2665 101.342 95.2494 104.259 94.3242 107.536L96.5671 109.035C138.549 117.51 182.008 117.327 223.906 108.498C210.279 95.129 193.52 83.2001 173.93 80.7282Z" fill="#F0F0F0"/>
    <path d="M631.301 451.91C625.475 456.693 618.021 459.392 610.264 459.527C602.508 459.663 594.951 457.226 588.937 452.65L588.811 452.553L588.806 452.401C588.735 449.866 588.312 447.35 587.547 444.917C587.509 446.669 587.235 448.409 586.732 450.097L586.569 450.665L586.131 450.243C585.752 449.879 585.386 449.509 585.042 449.144C583.019 447 581.324 444.605 580.007 442.026C574.031 430.305 565.034 419.837 553.266 410.912C551.249 409.381 549.373 407.695 547.656 405.873C540.403 398.17 536.324 388.309 536.15 378.055C535.976 367.801 539.718 357.825 546.705 349.911C553.693 341.998 563.47 336.665 574.285 334.867C585.101 333.069 596.249 334.923 605.734 340.099L606.023 340.257L605.873 340.536C604.774 342.664 603.324 344.617 601.574 346.324C603.98 345.111 606.205 343.61 608.194 341.859L608.404 341.674L608.642 341.827C611.758 343.839 614.598 346.199 617.1 348.855L617.369 349.144C619.279 351.182 621.628 352.823 624.262 353.957C626.896 355.092 629.757 355.696 632.658 355.729C637.391 355.804 642.051 356.834 646.316 358.75C650.582 360.666 654.353 363.422 657.368 366.828C660.384 370.234 662.574 374.21 663.787 378.481C664.999 382.753 665.206 387.219 664.393 391.572L664.356 391.774L664.146 391.834C659.712 393.094 656.025 393.527 652.692 393.168C655.928 394.483 659.375 395.289 662.894 395.553L663.349 395.587L663.204 395.991C661.371 401.129 658.109 405.72 653.752 409.295L653.627 409.396C653.583 409.432 653.539 409.468 653.495 409.504C650.248 412.114 647.592 415.303 645.683 418.884C643.774 422.465 642.65 426.366 642.377 430.357C642.161 434.457 641.07 438.476 639.168 442.177C637.266 445.878 634.591 449.187 631.301 451.91Z" fill="#52B788"/>
    <path opacity="0.15" d="M637.267 442.075C637.208 443.177 637.085 444.275 636.899 445.365C640.093 440.786 641.931 435.499 642.225 430.042C642.269 429.206 642.363 428.374 642.489 427.546C639.385 431.865 637.582 436.883 637.267 442.075Z" fill="black"/>
    <path opacity="0.15" d="M647.582 404.886C650.185 405.938 652.927 406.662 655.735 407.038C656.817 405.972 657.815 404.835 658.722 403.635C654.43 404.826 650.835 405.236 647.582 404.886Z" fill="black"/>
    <path opacity="0.15" d="M659.597 394.838C659.887 397.483 659.808 400.151 659.364 402.777C660.918 400.569 662.158 398.182 663.053 395.675L663.197 395.271L662.742 395.238C661.687 395.154 660.638 395.02 659.597 394.838Z" fill="black"/>
    <path opacity="0.15" d="M656.564 365.798C653.546 362.602 649.849 360.028 645.707 358.241C641.565 356.453 637.069 355.49 632.506 355.414C629.605 355.381 626.744 354.777 624.11 353.642C621.476 352.507 619.127 350.867 617.218 348.828L616.948 348.54C614.447 345.884 611.606 343.524 608.491 341.512L608.253 341.359L608.043 341.544C606.053 343.294 603.828 344.795 601.422 346.008C603.172 344.302 604.623 342.348 605.721 340.22L605.871 339.941L605.582 339.783C599.294 336.348 592.226 334.349 584.953 333.95C577.68 333.55 570.409 334.761 563.734 337.484C557.058 340.208 551.166 344.365 546.539 349.619C541.913 354.872 538.682 361.072 537.111 367.712C540.137 362.751 544.187 358.399 549.028 354.909C553.869 351.419 559.403 348.861 565.311 347.382C571.219 345.904 577.382 345.535 583.444 346.296C589.505 347.057 595.345 348.934 600.624 351.817L600.913 351.975L600.763 352.254C599.665 354.382 598.214 356.335 596.464 358.042C598.87 356.829 601.095 355.328 603.084 353.577L603.295 353.392L603.533 353.545C606.648 355.557 609.488 357.917 611.99 360.573L612.26 360.862C614.169 362.9 616.518 364.541 619.152 365.676C621.786 366.81 624.647 367.414 627.548 367.448C635.134 367.567 642.44 370.139 648.221 374.725C654.002 379.311 657.9 385.627 659.25 392.596C660.854 392.328 662.438 391.968 663.994 391.518L664.205 391.459L664.242 391.257C665.093 386.747 664.845 382.117 663.515 377.709C662.186 373.302 659.81 369.23 656.564 365.798Z" fill="black"/>
    <path d="M725.571 239.813C725.569 263.131 716.708 285.693 700.564 303.488C684.42 321.282 662.038 333.155 637.399 336.996L636.878 337.076L636.475 336.762C629.758 331.533 622.342 327.139 614.414 323.69C618.869 327.502 622.794 331.82 626.098 336.544L627.221 338.121L625.196 338.212C623.448 338.291 621.711 338.331 620.034 338.331C610.18 338.339 600.372 337.07 590.891 334.559C547.825 323.121 501.579 321.165 453.438 328.745C445.183 330.041 436.827 330.691 428.457 330.691C346.372 330.691 279.591 268.339 279.591 191.7C279.547 162.479 289.385 133.991 307.703 110.296C326.021 86.6009 351.884 68.9084 381.607 59.7402L382.63 59.4238L383.034 60.3563C386.21 67.3605 388.185 74.7881 388.884 82.366C390.858 74.3576 391.703 66.143 391.399 57.9304L391.366 57.0632L392.269 56.8519C404.106 54.0983 416.258 52.7068 428.457 52.7085L429.777 52.7136C439.119 52.7395 448.361 50.9273 456.902 47.3952C465.443 43.863 473.091 38.6902 479.347 32.214C489.605 21.6898 502.183 13.3648 516.217 7.8118C530.25 2.25881 545.406 -0.390399 560.641 0.0464422C575.876 0.483283 590.829 3.9958 604.472 10.3423C618.114 16.6889 630.121 25.7188 639.668 36.8109L640.112 37.3245L639.818 37.9265C633.652 50.613 626.935 59.8555 618.916 66.6144C629.206 62.1084 638.625 56.0418 646.79 48.6611L647.844 47.7069L648.583 48.8916C657.993 63.9547 662.947 81.0804 662.94 98.5172L662.938 99.0142C662.937 99.1896 662.937 99.3664 662.937 99.5419C662.937 126.215 673.986 151.496 693.303 168.98C703.462 178.187 711.55 189.195 717.091 201.358C722.633 213.521 725.516 226.595 725.571 239.813Z" fill="#52B788"/><g opacity="0.15">
    <path d="M596.546 6.9939C592.907 12.6311 588.43 17.758 583.249 22.2213C590.668 18.9698 597.643 14.9002 604.025 10.0997C601.577 8.97391 599.084 7.93864 596.546 6.9939Z" fill="black"/>
    <path d="M657.635 124.587C663.375 129.787 668.466 135.576 672.811 141.845C666.272 128.579 662.903 114.144 662.937 99.5418C662.937 99.3663 662.937 99.1896 662.938 99.0141L662.94 98.5171C662.947 81.0804 657.993 63.9547 648.583 48.8916L647.844 47.7068L646.79 48.661C640.971 53.911 634.511 58.5033 627.542 62.3432C629.338 86.3285 640.065 108.683 657.635 124.587Z" fill="black"/>
    <path d="M627.272 54.1241L627.271 54.6211C627.27 54.7965 627.27 54.9733 627.27 55.1488C627.27 56.1158 627.288 57.0804 627.317 58.0435C632.288 51.8018 636.482 45.0528 639.819 37.9265L640.112 37.3245L639.668 36.8109C634.1 30.3433 627.686 24.5524 620.575 19.5737C625.002 30.6241 627.271 42.3262 627.272 54.1241Z" fill="black"/>
    <path d="M693.303 168.98C688.225 164.37 683.714 159.246 679.852 153.704C686.769 167.46 690.179 182.524 689.816 197.717C689.453 212.909 685.327 227.816 677.76 241.271C670.192 254.725 659.391 266.361 646.2 275.267C633.01 284.173 617.79 290.107 601.732 292.603L601.211 292.683L600.807 292.369C594.09 287.139 586.675 282.745 578.747 279.297C583.202 283.109 587.127 287.427 590.43 292.151L591.554 293.728L589.529 293.819C587.781 293.898 586.044 293.938 584.367 293.938C574.512 293.946 564.704 292.676 555.224 290.166C512.158 278.728 465.912 276.772 417.77 284.352C409.516 285.647 401.16 286.298 392.79 286.298C356.303 286.324 321.088 273.788 293.885 251.09C317.782 298.102 369.117 330.691 428.457 330.691C436.827 330.691 445.183 330.04 453.438 328.745C501.579 321.165 547.825 323.121 590.891 334.559C600.372 337.069 610.18 338.339 620.034 338.331C621.711 338.331 623.448 338.291 625.196 338.212L627.221 338.121L626.098 336.544C622.794 331.82 618.869 327.502 614.414 323.69C622.342 327.138 629.758 331.533 636.475 336.762L636.878 337.076L637.4 336.996C656.682 334.002 674.693 326.065 689.424 314.071C704.155 302.077 715.027 286.498 720.825 269.072C726.623 251.646 727.119 233.059 722.26 215.385C717.4 197.711 707.375 181.645 693.303 168.98Z" fill="black"/></g>
    <path d="M478.784 380.615C473.104 374.901 470.158 366.327 473.178 359.06C477.703 366.41 484.866 372.03 493.402 374.924C496.698 376.03 500.487 376.939 502.287 379.743C503.327 381.557 503.582 383.675 502.998 385.659C502.41 387.62 501.556 389.503 500.455 391.262L500.451 391.77C492.43 389.6 484.465 386.329 478.784 380.615Z" fill="#52B788"/>
    <path d="M611.837 487.583C607.869 480.724 607.315 471.734 612.188 465.404C614.598 473.577 620.027 480.691 627.515 485.487C630.41 487.327 633.835 489.093 634.826 492.229C635.347 494.228 635.026 496.337 633.929 498.122C632.834 499.883 631.502 501.507 629.965 502.953L629.825 503.443C622.64 499.469 615.806 494.442 611.837 487.583Z" fill="#52B788"/>
    <path d="M707.743 355.144C703.774 348.285 703.22 339.295 708.093 332.964C710.503 341.138 715.932 348.252 723.42 353.048C726.315 354.888 729.74 356.653 730.731 359.789C731.252 361.788 730.931 363.898 729.834 365.682C728.739 367.444 727.407 369.068 725.87 370.513L725.73 371.004C718.546 367.03 711.711 362.003 707.743 355.144Z" fill="#52B788"/>
</svg>
